<?xml version="1.0" encoding="UTF-8" standalone="no"?>
<!DOCTYPE svg PUBLIC "-//W3C//DTD SVG 1.1//EN"
 "http://www.w3.org/Graphics/SVG/1.1/DTD/svg11.dtd">
<!-- Generated by graphviz version 2.40.1 (20161225.0304)
 -->
<!-- Title: gpg Pages: 1 -->
<svg width="1530pt" height="309pt"
 viewBox="0.00 0.00 1530.00 309.00" xmlns="http://www.w3.org/2000/svg" xmlns:xlink="http://www.w3.org/1999/xlink">
<g id="graph0" class="graph" transform="scale(1 1) rotate(0) translate(4 305)">
<title>gpg</title>
<polygon fill="#ffffff" stroke="transparent" points="-4,4 -4,-305 1526,-305 1526,4 -4,4"/>
<!-- gpg -->
<g id="node1" class="node">
<title>gpg</title>
<polygon fill="none" stroke="#000000" points="57,-88.5 57,-124.5 111,-124.5 111,-88.5 57,-88.5"/>
<text text-anchor="middle" x="84" y="-102.8" font-family="Times,serif" font-size="14.00" fill="#000000">gpg</text>
</g>
<!-- gpgAgent -->
<g id="node2" class="node">
<title>gpgAgent</title>
<polygon fill="none" stroke="#000000" points="83.5,-.5 83.5,-36.5 154.5,-36.5 154.5,-.5 83.5,-.5"/>
<text text-anchor="middle" x="119" y="-14.8" font-family="Times,serif" font-size="14.00" fill="#000000">gpg&#45;agent</text>
</g>
<!-- gpg&#45;&gt;gpgAgent -->
<g id="edge11" class="edge">
<title>gpg&#45;&gt;gpgAgent</title>
<path fill="none" stroke="#000000" d="M84.1996,-88.2656C84.8638,-78.1347 86.6278,-65.4949 91,-55 92.4358,-51.5534 94.281,-48.1484 96.3382,-44.8847"/>
<polygon fill="none" stroke="#000000" points="99.2455,-46.8351 102.1431,-36.6441 93.5228,-42.8038 99.2455,-46.8351"/>
<g id="a_edge11&#45;label"><a xlink:href="https://www.gnupg.org/documentation/manuals/gnupg/Agent-Protocol.html" xlink:title="Assuan">
<text text-anchor="middle" x="111" y="-58.8" font-family="Times,serif" font-size="14.00" fill="#000000">Assuan</text>
</a>
</g>
</g>
<!-- gpgConnectAgent -->
<g id="node3" class="node">
<title>gpgConnectAgent</title>
<polygon fill="none" stroke="#000000" points="426.5,-264.5 426.5,-300.5 543.5,-300.5 543.5,-264.5 426.5,-264.5"/>
<text text-anchor="middle" x="485" y="-278.8" font-family="Times,serif" font-size="14.00" fill="#000000">gpg&#45;connect&#45;agent</text>
</g>
<!-- gpgWksClient -->
<g id="node4" class="node">
<title>gpgWksClient</title>
<polygon fill="none" stroke="#000000" points="562,-264.5 562,-300.5 660,-300.5 660,-264.5 562,-264.5"/>
<text text-anchor="middle" x="611" y="-278.8" font-family="Times,serif" font-size="14.00" fill="#000000">gpg&#45;wks&#45;client</text>
</g>
<!-- gpgconf -->
<g id="node5" class="node">
<title>gpgconf</title>
<polygon fill="none" stroke="#000000" points="678.5,-264.5 678.5,-300.5 739.5,-300.5 739.5,-264.5 678.5,-264.5"/>
<text text-anchor="middle" x="709" y="-278.8" font-family="Times,serif" font-size="14.00" fill="#000000">gpgconf</text>
</g>
<!-- gpgsm -->
<g id="node6" class="node">
<title>gpgsm</title>
<polygon fill="none" stroke="#000000" points="131,-88.5 131,-124.5 185,-124.5 185,-88.5 131,-88.5"/>
<text text-anchor="middle" x="158" y="-102.8" font-family="Times,serif" font-size="14.00" fill="#000000">gpgsm</text>
</g>
<!-- gpgsm&#45;&gt;gpgAgent -->
<g id="edge12" class="edge">
<title>gpgsm&#45;&gt;gpgAgent</title>
<path fill="none" stroke="#000000" d="M149.9192,-88.2663C144.5331,-76.1132 137.3525,-59.9107 131.2669,-46.1791"/>
<polygon fill="none" stroke="#000000" points="134.3221,-44.4346 127.0705,-36.7103 127.9224,-47.2708 134.3221,-44.4346"/>
<g id="a_edge12&#45;label"><a xlink:href="https://www.gnupg.org/documentation/manuals/gnupg/Agent-Protocol.html" xlink:title="Assuan">
<text text-anchor="middle" x="161" y="-58.8" font-family="Times,serif" font-size="14.00" fill="#000000">Assuan</text>
</a>
</g>
</g>
<!-- scdaemon -->
<g id="node7" class="node">
<title>scdaemon</title>
<polygon fill="none" stroke="#000000" points="757.5,-264.5 757.5,-300.5 828.5,-300.5 828.5,-264.5 757.5,-264.5"/>
<text text-anchor="middle" x="793" y="-278.8" font-family="Times,serif" font-size="14.00" fill="#000000">scdaemon</text>
</g>
<!-- watchgnupg -->
<g id="node8" class="node">
<title>watchgnupg</title>
<polygon fill="none" stroke="#000000" points="846.5,-264.5 846.5,-300.5 929.5,-300.5 929.5,-264.5 846.5,-264.5"/>
<text text-anchor="middle" x="888" y="-278.8" font-family="Times,serif" font-size="14.00" fill="#000000">watchgnupg</text>
</g>
<!-- nitrokeyApp -->
<g id="node9" class="node">
<title>nitrokeyApp</title>
<polygon fill="none" stroke="#000000" points="948,-264.5 948,-300.5 1034,-300.5 1034,-264.5 948,-264.5"/>
<text text-anchor="middle" x="991" y="-278.8" font-family="Times,serif" font-size="14.00" fill="#000000">nitrokey&#45;app</text>
</g>
<!-- libccid -->
<g id="node10" class="node">
<title>libccid</title>
<polygon fill="none" stroke="#000000" points="1052,-264.5 1052,-300.5 1106,-300.5 1106,-264.5 1052,-264.5"/>
<text text-anchor="middle" x="1079" y="-278.8" font-family="Times,serif" font-size="14.00" fill="#000000">libccid</text>
</g>
<!-- openscExplorer -->
<g id="node11" class="node">
<title>openscExplorer</title>
<polygon fill="none" stroke="#000000" points="1124,-264.5 1124,-300.5 1228,-300.5 1228,-264.5 1124,-264.5"/>
<text text-anchor="middle" x="1176" y="-278.8" font-family="Times,serif" font-size="14.00" fill="#000000">opensc&#45;explorer</text>
</g>
<!-- openscTool -->
<g id="node12" class="node">
<title>openscTool</title>
<polygon fill="none" stroke="#000000" points="1246,-264.5 1246,-300.5 1326,-300.5 1326,-264.5 1246,-264.5"/>
<text text-anchor="middle" x="1286" y="-278.8" font-family="Times,serif" font-size="14.00" fill="#000000">opensc&#45;tool</text>
</g>
<!-- pkcs11Tool -->
<g id="node13" class="node">
<title>pkcs11Tool</title>
<polygon fill="none" stroke="#000000" points="1344,-264.5 1344,-300.5 1424,-300.5 1424,-264.5 1344,-264.5"/>
<text text-anchor="middle" x="1384" y="-278.8" font-family="Times,serif" font-size="14.00" fill="#000000">pkcs11&#45;tool</text>
</g>
<!-- pkcs15Tool -->
<g id="node14" class="node">
<title>pkcs15Tool</title>
<polygon fill="none" stroke="#000000" points="1442,-264.5 1442,-300.5 1522,-300.5 1522,-264.5 1442,-264.5"/>
<text text-anchor="middle" x="1482" y="-278.8" font-family="Times,serif" font-size="14.00" fill="#000000">pkcs15&#45;tool</text>
</g>
<!-- gitTag -->
<g id="node15" class="node">
<title>gitTag</title>
<polygon fill="none" stroke="#000000" points="219,-264.5 219,-300.5 273,-300.5 273,-264.5 219,-264.5"/>
<text text-anchor="middle" x="246" y="-278.8" font-family="Times,serif" font-size="14.00" fill="#000000">git&#45;tag</text>
</g>
<!-- gitRepository -->
<g id="node19" class="node">
<title>gitRepository</title>
<path fill="none" stroke="#000000" d="M298.5,-209.2273C298.5,-211.0331 285.2776,-212.5 269,-212.5 252.7224,-212.5 239.5,-211.0331 239.5,-209.2273 239.5,-209.2273 239.5,-179.7727 239.5,-179.7727 239.5,-177.9669 252.7224,-176.5 269,-176.5 285.2776,-176.5 298.5,-177.9669 298.5,-179.7727 298.5,-179.7727 298.5,-209.2273 298.5,-209.2273"/>
<path fill="none" stroke="#000000" d="M298.5,-209.2273C298.5,-207.4214 285.2776,-205.9545 269,-205.9545 252.7224,-205.9545 239.5,-207.4214 239.5,-209.2273"/>
<text text-anchor="middle" x="269" y="-190.8" font-family="Times,serif" font-size="14.00" fill="#000000">git repo</text>
</g>
<!-- gitTag&#45;&gt;gitRepository -->
<g id="edge1" class="edge">
<title>gitTag&#45;&gt;gitRepository</title>
<path fill="none" stroke="#000000" stroke-dasharray="5,2" d="M259.4258,-264.4323C262.8867,-258.8086 266.1538,-252.3979 268,-246 270.0896,-238.7585 270.9117,-230.7031 271.0744,-223.1547"/>
<polygon fill="#000000" stroke="#000000" points="270.9287,-212.9588 275.5712,-222.8934 271.0002,-217.9583 271.0716,-222.9577 271.0716,-222.9577 271.0716,-222.9577 271.0002,-217.9583 266.5721,-223.0221 270.9287,-212.9588 270.9287,-212.9588"/>
</g>
<!-- gpgInterface -->
<g id="node20" class="node">
<title>gpgInterface</title>
<polygon fill="none" stroke="#000000" points="71,-176.5 71,-212.5 169,-212.5 169,-176.5 71,-176.5"/>
<text text-anchor="middle" x="120" y="-190.8" font-family="Times,serif" font-size="14.00" fill="#000000">gpg&#45;interface.c</text>
</g>
<!-- gitTag&#45;&gt;gpgInterface -->
<g id="edge5" class="edge">
<title>gitTag&#45;&gt;gpgInterface</title>
<path fill="none" stroke="#000000" d="M220.198,-264.4795C201.2141,-251.221 175.2097,-233.0591 154.4503,-218.5605"/>
<polygon fill="none" stroke="#000000" points="156.403,-215.6553 146.2005,-212.7988 152.3949,-221.3942 156.403,-215.6553"/>
<text text-anchor="middle" x="219.5" y="-234.8" font-family="Times,serif" font-size="14.00" fill="#000000">&lt;&lt;uses&gt;&gt;</text>
</g>
<!-- gitVerifyTag -->
<g id="node16" class="node">
<title>gitVerifyTag</title>
<polygon fill="none" stroke="#000000" points="106.5,-264.5 106.5,-300.5 195.5,-300.5 195.5,-264.5 106.5,-264.5"/>
<text text-anchor="middle" x="151" y="-278.8" font-family="Times,serif" font-size="14.00" fill="#000000">git&#45;verify&#45;tag</text>
</g>
<!-- gitVerifyTag&#45;&gt;gitRepository -->
<g id="edge2" class="edge">
<title>gitVerifyTag&#45;&gt;gitRepository</title>
<path fill="none" stroke="#000000" stroke-dasharray="5,2" d="M195.8559,-268.0783C215.3853,-261.1289 235.5166,-252.8397 243,-246 250.0904,-239.5195 255.5174,-230.6666 259.532,-222.1284"/>
<polygon fill="#000000" stroke="#000000" points="263.478,-212.7654 263.7411,-223.7281 261.5362,-217.3729 259.5943,-221.9805 259.5943,-221.9805 259.5943,-221.9805 261.5362,-217.3729 255.4475,-220.2328 263.478,-212.7654 263.478,-212.7654"/>
</g>
<!-- gitVerifyTag&#45;&gt;gpgInterface -->
<g id="edge6" class="edge">
<title>gitVerifyTag&#45;&gt;gpgInterface</title>
<path fill="none" stroke="#000000" d="M106.384,-268.3492C96.3299,-262.9837 86.8981,-255.7272 81,-246 75.7229,-237.2969 79.0881,-228.2925 85.6315,-220.294"/>
<polygon fill="none" stroke="#000000" points="88.5724,-222.2898 93.0319,-212.6792 83.5525,-217.4112 88.5724,-222.2898"/>
<text text-anchor="middle" x="109.5" y="-234.8" font-family="Times,serif" font-size="14.00" fill="#000000">&lt;&lt;uses&gt;&gt;</text>
</g>
<!-- gitCommit -->
<g id="node17" class="node">
<title>gitCommit</title>
<polygon fill="none" stroke="#000000" points="0,-264.5 0,-300.5 78,-300.5 78,-264.5 0,-264.5"/>
<text text-anchor="middle" x="39" y="-278.8" font-family="Times,serif" font-size="14.00" fill="#000000">git&#45;commit</text>
</g>
<!-- gitCommit&#45;&gt;gitRepository -->
<g id="edge3" class="edge">
<title>gitCommit&#45;&gt;gitRepository</title>
<path fill="none" stroke="#000000" stroke-dasharray="5,2" d="M78.0726,-269.0954C84.3552,-267.2132 90.8229,-265.4347 97,-264 149.9598,-251.6992 169.5007,-270.5736 218,-246 229.9262,-239.9573 240.7378,-230.0592 249.3057,-220.547"/>
<polygon fill="#000000" stroke="#000000" points="255.9502,-212.7405 252.8954,-223.2723 252.7094,-216.5481 249.4686,-220.3556 249.4686,-220.3556 249.4686,-220.3556 252.7094,-216.5481 246.0418,-217.4389 255.9502,-212.7405 255.9502,-212.7405"/>
</g>
<!-- gitCommit&#45;&gt;gpgInterface -->
<g id="edge7" class="edge">
<title>gitCommit&#45;&gt;gpgInterface</title>
<path fill="none" stroke="#000000" d="M23.1627,-264.3287C16.1336,-253.9799 10.8836,-241.1049 18,-231 23.677,-222.9389 41.8123,-215.3586 61.2492,-209.2172"/>
<polygon fill="none" stroke="#000000" points="62.2835,-212.561 70.8466,-206.3221 60.2619,-205.8593 62.2835,-212.561"/>
<text text-anchor="middle" x="46.5" y="-234.8" font-family="Times,serif" font-size="14.00" fill="#000000">&lt;&lt;uses&gt;&gt;</text>
</g>
<!-- gitVerifyCommit -->
<g id="node18" class="node">
<title>gitVerifyCommit</title>
<polygon fill="none" stroke="#000000" points="293.5,-264.5 293.5,-300.5 408.5,-300.5 408.5,-264.5 293.5,-264.5"/>
<text text-anchor="middle" x="351" y="-278.8" font-family="Times,serif" font-size="14.00" fill="#000000">git&#45;verify&#45;commit</text>
</g>
<!-- gitVerifyCommit&#45;&gt;gitRepository -->
<g id="edge4" class="edge">
<title>gitVerifyCommit&#45;&gt;gitRepository</title>
<path fill="none" stroke="#000000" stroke-dasharray="5,2" d="M367.3976,-264.3647C374.6968,-254.028 380.1968,-241.153 373,-231 365.2337,-220.0435 334.7171,-210.1287 308.7336,-203.4071"/>
<polygon fill="#000000" stroke="#000000" points="298.6896,-200.9043 309.481,-198.9558 303.5413,-202.1133 308.3929,-203.3223 308.3929,-203.3223 308.3929,-203.3223 303.5413,-202.1133 307.3048,-207.6888 298.6896,-200.9043 298.6896,-200.9043"/>
</g>
<!-- gitVerifyCommit&#45;&gt;gpgInterface -->
<g id="edge8" class="edge">
<title>gitVerifyCommit&#45;&gt;gpgInterface</title>
<path fill="none" stroke="#000000" d="M320.1334,-264.2995C300.9889,-253.5574 275.6187,-240.2895 252,-231 228.5733,-221.786 201.9462,-213.9503 178.7729,-207.9288"/>
<polygon fill="none" stroke="#000000" points="179.6266,-204.5346 169.0724,-205.4605 177.9005,-211.3184 179.6266,-204.5346"/>
<text text-anchor="middle" x="311.5" y="-234.8" font-family="Times,serif" font-size="14.00" fill="#000000">&lt;&lt;uses&gt;&gt;</text>
</g>
<!-- gpgInterface&#45;&gt;gpg -->
<g id="edge9" class="edge">
<title>gpgInterface&#45;&gt;gpg</title>
<path fill="none" stroke="#000000" d="M94.2314,-176.1166C88.8678,-170.923 83.9521,-164.8062 81,-158 77.9128,-150.8824 77.2584,-142.685 77.7439,-134.9534"/>
<polygon fill="none" stroke="#000000" points="81.2402,-135.1976 78.991,-124.8443 74.2929,-134.3405 81.2402,-135.1976"/>
<text text-anchor="middle" x="109.5" y="-146.8" font-family="Times,serif" font-size="14.00" fill="#000000">&lt;&lt;uses&gt;&gt;</text>
</g>
<!-- gpgInterface&#45;&gt;gpgsm -->
<g id="edge10" class="edge">
<title>gpgInterface&#45;&gt;gpgsm</title>
<path fill="none" stroke="#000000" d="M129.2898,-176.4534C132.1895,-170.6158 135.3265,-164.0797 138,-158 141.3663,-150.3448 144.7594,-141.9304 147.7707,-134.1618"/>
<polygon fill="none" stroke="#000000" points="151.0582,-135.3636 151.35,-124.7728 144.5174,-132.8701 151.0582,-135.3636"/>
<text text-anchor="middle" x="172.5" y="-146.8" font-family="Times,serif" font-size="14.00" fill="#000000">&lt;&lt;uses&gt;&gt;</text>
</g>
</g>
</svg>
